<?xml version="1.0" encoding="utf-8"?>
<!-- Generator: Adobe Illustrator 22.1.0, SVG Export Plug-In . SVG Version: 6.00 Build 0)  -->
<!DOCTYPE svg PUBLIC "-//W3C//DTD SVG 1.1//EN" "http://www.w3.org/Graphics/SVG/1.1/DTD/svg11.dtd">
<svg version="1.1" id="Layer_1" xmlns="http://www.w3.org/2000/svg" xmlns:xlink="http://www.w3.org/1999/xlink" x="0px" y="0px"
	 viewBox="0 0 616.4 138.2" style="enable-background:new 0 0 616.4 138.2;" xml:space="preserve">
<style type="text/css">
	.st0{fill:#FFFFFF;}
</style>
<g>
	<g>
		<g>
			<g>
				<path class="st0" d="M173.2,69.1"/>
			</g>
			<g>
				<path class="st0" d="M71.3,138.1c-17.7,0.6-35.5-5.6-49.4-18.7l0,0C7.9,106.4,0.6,88.9,0,71.3l0,0c-0.6-17.6,5.6-35.5,18.7-49.4
					l0,0C31.8,7.9,49.2,0.6,66.9,0l0,0c17.7-0.6,35.5,5.6,49.5,18.7l0,0c0.7,0.6,0.7,1.7,0.1,2.4l0,0c-0.6,0.7-1.7,0.7-2.4,0.1l0,0
					C100.8,8.7,83.8,2.9,67,3.4l0,0c-16.8,0.5-33.4,7.5-45.8,20.7l0,0C8.7,37.4,2.9,54.4,3.4,71.2l0,0C4,88,10.9,104.6,24.1,117l0,0
					c13.2,12.4,30.2,18.3,47,17.8l0,0c16.8-0.5,33.4-7.5,45.8-20.7l0,0l0,0c0.6-0.7,1.7-0.7,2.4-0.1l0,0c0.7,0.6,0.7,1.7,0.1,2.4
					l0,0C106.4,130.2,88.9,137.6,71.3,138.1L71.3,138.1z"/>
			</g>
			<g>
				<path class="st0" d="M26.6,111.6C15.7,100.7,9,85.7,9,69.1l0,0c0-16.6,6.7-31.6,17.6-42.5l0,0C37.4,15.7,52.5,9,69.1,9l0,0
					c16.6,0,31.6,6.7,42.5,17.6l0,0c10.9,10.9,17.6,25.9,17.6,42.5l0,0c0,16.6-6.7,31.6-17.6,42.5l0,0
					c-10.9,10.9-25.9,17.6-42.5,17.6l0,0C52.5,129.1,37.4,122.4,26.6,111.6L26.6,111.6z M11.2,69.1c0,32,25.9,57.8,57.9,57.8l0,0
					c32,0,57.9-25.8,57.9-57.8l0,0c0-32-25.9-57.8-57.9-57.8l0,0C37.1,11.3,11.2,37.1,11.2,69.1L11.2,69.1z"/>
			</g>
			<g>
				<path class="st0" d="M16.9,69.1c0-28.8,23.4-52.3,52.2-52.3l0,0c0.9,0,1.7,0.8,1.7,1.7l0,0c0,0.9-0.8,1.7-1.7,1.7l0,0
					c-13.5,0-25.7,5.5-34.5,14.3l0,0c-8.8,8.8-14.3,21.1-14.3,34.6l0,0c0,13.5,5.5,25.7,14.3,34.6l0,0c8.8,8.9,21.1,14.3,34.5,14.3
					l0,0c13.5,0,25.7-5.5,34.5-14.3l0,0c8.8-8.8,14.3-21.1,14.3-34.6l0,0c0-0.9,0.7-1.7,1.7-1.7l0,0c0.9,0,1.7,0.8,1.7,1.7l0,0
					c0,28.8-23.4,52.3-52.2,52.3l0,0C40.2,121.3,16.9,97.9,16.9,69.1L16.9,69.1z"/>
			</g>
			<g>
				<path class="st0" d="M65.7,111.2c0-1.9,1.5-3.4,3.4-3.4l0,0c21.4-0.1,38.7-17.3,38.8-38.8l0,0c0-21.5-17.4-38.8-38.8-38.8l0,0
					c-21.4,0-38.7,17.3-38.8,38.8l0,0c0,1.9-1.5,3.4-3.4,3.4l0,0c-1.9,0-3.4-1.5-3.4-3.4l0,0c0-25.2,20.4-45.4,45.5-45.5l0,0
					c25.1,0.1,45.5,20.3,45.5,45.5l0,0c0,25.2-20.4,45.5-45.5,45.5l0,0C67.2,114.6,65.7,113.1,65.7,111.2L65.7,111.2z"/>
			</g>
			<g>
				<path class="st0" d="M69.1,35.4"/>
			</g>
			<g>
				<path class="st0" d="M33.7,69.1c0-0.9,0.8-1.7,1.7-1.7l0,0c0.9,0,1.7,0.8,1.7,1.7l0,0c0,17.7,14.3,32,32,32l0,0
					c17.7,0,32-14.3,32-32l0,0c0-0.9,0.8-1.7,1.7-1.7l0,0c0.9,0,1.7,0.8,1.7,1.7l0,0c0,19.5-15.8,35.4-35.4,35.4l0,0
					C49.5,104.4,33.7,88.6,33.7,69.1L33.7,69.1z"/>
			</g>
			<g>
				<path class="st0" d="M41,69.1c0-15.6,12.6-28,28.1-28l0,0c15.5,0,28.1,12.5,28.1,28l0,0c0,15.6-12.6,28-28.1,28l0,0
					C53.6,97.1,41,84.6,41,69.1L41,69.1z M46.6,69.1c0,12.5,10.1,22.4,22.5,22.4l0,0c12.4,0,22.5-10,22.5-22.4l0,0
					c0-12.5-10.1-22.4-22.5-22.4l0,0C56.7,46.6,46.6,56.6,46.6,69.1L46.6,69.1z"/>
			</g>
			<g>
				<path class="st0" d="M65.7,86c0-1.9,1.5-3.4,3.4-3.4l0,0c7.4,0,13.5-6.1,13.5-13.5l0,0c0-7.5-6-13.5-13.5-13.5l0,0
					c-7.4,0-13.5,6.1-13.5,13.5l0,0l0,0c0,1.9-1.5,3.4-3.4,3.4l0,0c-1.9,0-3.4-1.5-3.4-3.4l0,0c0-11.2,9-20.3,20.2-20.3l0,0
					c11.2,0,20.2,9.1,20.2,20.3l0,0c0,11.1-9,20.2-20.2,20.3l0,0C67.2,89.3,65.7,87.8,65.7,86L65.7,86z"/>
			</g>
		</g>
	</g>
	<g>
		<path class="st0" d="M153.7,47.8H181v6.6h-20v10.1H180v6.6h-18.9v11.2h21V89h-28.4V47.8z"/>
		<path class="st0" d="M205.2,69.5c-1.6-1.7-3.4-2.8-5.3-2.8c-5.1,0-8.2,4-8.2,8.4c0,4.4,3.1,8.4,8.2,8.4c2.2,0,4.1-0.9,5.4-2.6
			l4.7,5c-2.9,2.9-7.6,3.9-10.1,3.9c-8.4,0-15.2-5.9-15.2-14.7c0-8.8,6.8-14.7,15.2-14.7c3.6,0,7.5,1.3,10.1,4.2L205.2,69.5z"/>
		<path class="st0" d="M227.6,60.4c8.4,0,15.2,5.9,15.2,14.7c0,8.8-6.8,14.7-15.2,14.7c-8.4,0-15.2-5.9-15.2-14.7
			C212.4,66.3,219.1,60.4,227.6,60.4z M227.6,83.5c5.1,0,8.2-4,8.2-8.4c0-4.4-3.1-8.4-8.2-8.4c-5.1,0-8.2,4-8.2,8.4
			C219.4,79.4,222.4,83.5,227.6,83.5z"/>
		<path class="st0" d="M250.4,47.8h7.3v16.4H277V47.8h7.3V89H277V70.9h-19.3V89h-7.3V47.8z"/>
		<path class="st0" d="M296.1,77.5c0.5,4.1,3.6,6.6,7.5,6.6c3.5,0,5.8-1.6,7.5-3.8l5,3.8c-3.3,4-7.4,5.6-11.8,5.6
			c-8.4,0-15.2-5.9-15.2-14.7c0-8.8,6.8-14.7,15.2-14.7c7.8,0,13.1,5.5,13.1,15.2v1.9H296.1z M310.4,72.3c-0.1-4.1-2.7-6.6-7.1-6.6
			c-4.1,0-6.7,2.6-7.2,6.6H310.4z"/>
		<path class="st0" d="M340.5,85.2h-0.2c-2,3.1-5.2,4.5-9,4.5c-5.2,0-10.2-2.9-10.2-8.4c0-9.1,10.6-9.7,17.6-9.7h1.7v-0.8
			c0-3.4-2.7-5.2-6.4-5.2c-2.9,0-5.6,1.2-7.5,2.9l-3.7-3.7c3.1-3.1,7.5-4.5,11.9-4.5c11.9,0,11.9,8.6,11.9,12.6V89h-6.3V85.2z
			 M340.1,76.5h-1.5c-3.8,0-10.5,0.3-10.5,4.3c0,2.6,2.6,3.7,4.9,3.7c4.8,0,7-2.5,7-6.4V76.5z"/>
		<path class="st0" d="M352.2,45h7v44h-7V45z"/>
		<path class="st0" d="M364.3,67v-5.9h5.8V53h7v8.1h7.7V67h-7.7v12.2c0,2.8,0.8,4.5,3.9,4.5c1.2,0,2.9-0.2,3.8-0.9v5.9
			c-1.5,0.7-3.9,0.9-5.5,0.9c-7.4,0-9.1-3.3-9.1-9.9V67H364.3z"/>
		<path class="st0" d="M398.3,65h0.1c1.1-2.3,3.9-4.6,8.2-4.6c7.5,0,10.2,5.3,10.2,11V89h-7V74.9c0-3.1-0.2-8.2-5.1-8.2
			c-4.6,0-6.4,3.4-6.4,7.1V89h-7V45h7V65z"/>
		<path class="st0" d="M449.5,47.8h4.6L471.7,89H466l-4.2-10.1h-20.6L436.9,89h-5.5L449.5,47.8z M451.7,54.1h-0.1l-8.6,20.3h16.8
			L451.7,54.1z"/>
		<path class="st0" d="M474.8,45h4.5v44h-4.5V45z"/>
		<path class="st0" d="M484.8,45h4.5v44h-4.5V45z"/>
		<path class="st0" d="M497.8,47.8c1.9,0,3.3,1.5,3.3,3.3c0,1.9-1.4,3.3-3.3,3.3c-1.9,0-3.3-1.4-3.3-3.3
			C494.5,49.3,496,47.8,497.8,47.8z M495.6,61.8h4.5V89h-4.5V61.8z"/>
		<path class="st0" d="M506.3,65.3c2.8-2.9,6.9-4.2,10.8-4.2c8,0,11.4,3.8,11.4,11.5v11.7c0,1.6,0.2,3.3,0.4,4.7h-4.4
			c-0.3-1.2-0.3-2.9-0.3-4.1h-0.1c-1.8,2.8-4.8,4.8-9,4.8c-5.5,0-10.1-2.8-10.1-8.1c0-9,10.5-9.5,17.2-9.5h1.7v-0.8c0-4-2.5-6-6.8-6
			c-2.9,0-5.9,1-8.1,3L506.3,65.3z M519.5,75.9c-5.8,0-9.5,1.6-9.5,5.2c0,3.4,2.6,4.7,6,4.7c5.2,0,7.9-3.8,8-8.2v-1.8H519.5z"/>
		<path class="st0" d="M534.3,68.3c0-2.5-0.2-4.7-0.2-6.5h4.3c0,1.5,0.1,3,0.1,4.5h0.1c1.2-2.7,4.6-5.2,9.1-5.2
			c7.2,0,10.4,4.5,10.4,11.1V89h-4.5V72.7c0-4.5-2-7.4-6.2-7.4c-5.9,0-8.4,4.3-8.4,10.5V89h-4.5V68.3z"/>
		<path class="st0" d="M583.7,68.6c-1.9-2.3-4.1-3.3-6.9-3.3c-6.1,0-9.2,4.5-9.2,10.1c0,5.6,3.7,10.1,9.2,10.1c3,0,5.2-1,6.9-3.4
			l3.4,3.2c-2.6,3-6.4,4.4-10.3,4.4c-8.4,0-14.1-5.9-14.1-14.3c0-8.3,5.7-14.3,14.1-14.3c4,0,7.7,1.3,10.5,4.3L583.7,68.6z"/>
		<path class="st0" d="M615.5,84.1c-3.2,4.1-7.1,5.6-12.1,5.6c-8.6,0-13.8-6.4-13.8-14.3c0-8.4,5.9-14.3,14-14.3
			c7.7,0,12.9,5.2,12.9,14.3v1.5h-22c0.3,4.7,4,8.7,8.9,8.7c3.9,0,6.5-1.4,8.7-4.1L615.5,84.1z M611.5,73c-0.2-4.6-3.2-7.7-8.2-7.7
			c-5,0-8.3,3.1-8.9,7.7H611.5z"/>
	</g>
</g>
</svg>
